#define splashscreen_width 296
#define splashscreen_height 128
static unsigned char splashscreen_bits[] = {
   0x00, 0x00, 0x00, 0x00, 0x00, 0x00, 0x00, 0x00, 0x00, 0x00, 0x00, 0x00,
   0x00, 0x00, 0x00, 0x00, 0x00, 0x00, 0x00, 0x00, 0x00, 0x00, 0x00, 0x00,
   0x00, 0x00, 0x00, 0x00, 0x00, 0x00, 0x00, 0x00, 0x00, 0x00, 0x00, 0x00,
   0x00, 0x00, 0x00, 0x00, 0x00, 0x00, 0x00, 0x00, 0x00, 0x00, 0x00, 0x00,
   0x00, 0x00, 0x00, 0x00, 0x00, 0x0c, 0x00, 0xc0, 0x00, 0x00, 0x00, 0x00,
   0x00, 0x00, 0x00, 0x00, 0x30, 0x00, 0x00, 0x00, 0x00, 0x00, 0xc0, 0x00,
   0x00, 0x00, 0x00, 0x00, 0x00, 0x00, 0x00, 0x00, 0x00, 0x00, 0x00, 0x00,
   0x00, 0x00, 0x00, 0x00, 0x00, 0x00, 0x0c, 0x00, 0xc0, 0x00, 0x00, 0x00,
   0x00, 0x00, 0x00, 0x80, 0x07, 0x30, 0x00, 0x00, 0x80, 0x01, 0x00, 0xc0,
   0x00, 0x00, 0x00, 0x00, 0x00, 0x00, 0x00, 0x00, 0x00, 0x00, 0x00, 0x00,
   0x00, 0x00, 0x00, 0x18, 0x00, 0x00, 0x00, 0x0c, 0x00, 0xc0, 0x00, 0x00,
   0x00, 0x00, 0x00, 0x00, 0x80, 0x07, 0x30, 0x00, 0x80, 0x81, 0x01, 0x00,
   0xc0, 0x00, 0x00, 0x00, 0x00, 0x00, 0x00, 0x00, 0x00, 0x00, 0x00, 0x00,
   0x00, 0x00, 0x00, 0x00, 0x18, 0x00, 0x00, 0x00, 0x00, 0x00, 0x00, 0x00,
   0x00, 0x00, 0x00, 0x00, 0x00, 0x00, 0x06, 0x00, 0x00, 0x80, 0x81, 0x01,
   0x00, 0x00, 0x00, 0x00, 0x00, 0x00, 0x00, 0x00, 0x00, 0x00, 0x00, 0x00,
   0x00, 0x00, 0x00, 0x00, 0x00, 0xfe, 0xb0, 0x87, 0x0f, 0x0f, 0xf6, 0xf0,
   0x60, 0x0f, 0x6e, 0x00, 0xe0, 0x86, 0x07, 0x06, 0x3c, 0xe0, 0xe1, 0x8f,
   0x3d, 0x00, 0xf0, 0x80, 0x07, 0x00, 0x00, 0x00, 0x00, 0x00, 0x00, 0x00,
   0x00, 0x00, 0x00, 0x00, 0x00, 0x00, 0xfe, 0xf0, 0xc7, 0x1f, 0x0f, 0xfe,
   0xf1, 0xe0, 0x1f, 0x7f, 0x00, 0xf0, 0xc7, 0x0f, 0x06, 0x3c, 0xf0, 0xe3,
   0x8f, 0x7f, 0x00, 0xf0, 0xc0, 0x0f, 0x00, 0x00, 0x00, 0x00, 0x00, 0x00,
   0x00, 0x00, 0x00, 0x00, 0x00, 0x00, 0x00, 0x18, 0x70, 0x40, 0x18, 0x0c,
   0x8e, 0xc1, 0xe0, 0x98, 0x73, 0x00, 0x38, 0xe7, 0x1c, 0x06, 0x30, 0x38,
   0x87, 0x81, 0x63, 0x00, 0xc0, 0xe0, 0x1c, 0x00, 0x00, 0x00, 0x00, 0x00,
   0x00, 0x00, 0x00, 0x00, 0x00, 0x00, 0x00, 0x00, 0x18, 0x30, 0x00, 0x1f,
   0x0c, 0x86, 0xc1, 0x60, 0x98, 0x61, 0x00, 0x18, 0x66, 0x18, 0x06, 0x30,
   0x18, 0x86, 0x81, 0x61, 0x00, 0xc0, 0x60, 0x18, 0x00, 0x00, 0x00, 0x00,
   0x00, 0x00, 0x00, 0x00, 0x00, 0x00, 0x00, 0x00, 0x00, 0x18, 0x30, 0xc0,
   0x1f, 0x0c, 0x86, 0xc1, 0x60, 0x98, 0x61, 0x00, 0x18, 0x66, 0x18, 0x06,
   0x30, 0x18, 0x86, 0x81, 0x61, 0x00, 0xc0, 0x60, 0x18, 0x00, 0x00, 0x00,
   0x00, 0x00, 0x00, 0x00, 0x00, 0x00, 0x00, 0x00, 0x00, 0x00, 0x18, 0x30,
   0xe0, 0x18, 0x0c, 0x86, 0xc1, 0x60, 0x98, 0x61, 0x00, 0x18, 0x66, 0x18,
   0x06, 0x30, 0x18, 0x86, 0x81, 0x61, 0x00, 0xc0, 0x60, 0x18, 0x00, 0x00,
   0x00, 0x00, 0x00, 0x00, 0x00, 0x00, 0x00, 0x00, 0x00, 0x00, 0x00, 0x18,
   0x30, 0x60, 0x1c, 0x0c, 0x86, 0xc1, 0x60, 0x98, 0x73, 0x30, 0x38, 0xe7,
   0x1c, 0x06, 0x30, 0x38, 0x87, 0x81, 0x61, 0x30, 0xc0, 0xe0, 0x1c, 0x00,
   0x00, 0x00, 0x00, 0x00, 0x00, 0x00, 0x00, 0x00, 0x00, 0x00, 0x00, 0x00,
   0xf8, 0x30, 0xe0, 0x9f, 0x7f, 0x86, 0xf9, 0x67, 0x18, 0x7f, 0x30, 0xf0,
   0xc7, 0x0f, 0x3e, 0xfe, 0xf1, 0x83, 0x8f, 0x61, 0x30, 0xf8, 0xc7, 0x0f,
   0x00, 0x00, 0x00, 0x00, 0x00, 0x00, 0x00, 0x00, 0x00, 0x00, 0x00, 0x00,
   0x00, 0xf0, 0x30, 0xc0, 0x9b, 0x7f, 0x86, 0xf9, 0x67, 0x18, 0x6e, 0x30,
   0xe0, 0x86, 0x07, 0x3c, 0xfe, 0xe1, 0x01, 0x8f, 0x61, 0x30, 0xf8, 0x87,
   0x07, 0x00, 0x00, 0x00, 0x00, 0x00, 0x00, 0x00, 0x00, 0x00, 0x00, 0x00,
   0x00, 0x00, 0x00, 0x00, 0x00, 0x00, 0x00, 0x00, 0x00, 0x00, 0x00, 0x61,
   0x00, 0x10, 0x06, 0x00, 0x00, 0x00, 0x00, 0x00, 0x00, 0x00, 0x00, 0x00,
   0x00, 0x00, 0x00, 0x00, 0x00, 0x00, 0x00, 0x00, 0x00, 0x00, 0x00, 0x00,
   0x00, 0x00, 0x00, 0x00, 0x00, 0x00, 0x00, 0x00, 0x00, 0x00, 0x00, 0x00,
   0x7f, 0x00, 0xf0, 0x07, 0x00, 0x00, 0x00, 0x00, 0x00, 0x00, 0x00, 0x00,
   0x00, 0x00, 0x00, 0x00, 0x00, 0x00, 0x00, 0x00, 0x00, 0x00, 0x00, 0x00,
   0x00, 0x00, 0x00, 0x00, 0x00, 0x00, 0x00, 0x00, 0x00, 0x00, 0x00, 0x00,
   0x00, 0x3e, 0x00, 0xe0, 0x03, 0x00, 0x00, 0x00, 0x00, 0x00, 0x00, 0x00,
   0x00, 0x00, 0x00, 0x00, 0x00, 0x00, 0x00, 0x00, 0x00, 0x00, 0x00, 0x00,
   0x00, 0x00, 0x00, 0x00, 0x00, 0x00, 0x00, 0x00, 0x00, 0x00, 0x00, 0x00,
   0x00, 0x00, 0x00, 0x00, 0x00, 0x00, 0x00, 0x00, 0x00, 0x00, 0x00, 0x00,
   0x00, 0x00, 0x00, 0x00, 0x00, 0x00, 0x00, 0x00, 0x00, 0x00, 0x00, 0x00,
   0x00, 0x00, 0x00, 0x00, 0x00, 0x00, 0x00, 0x00, 0x00, 0x00, 0x00, 0x00,
   0x00, 0x00, 0x00, 0x00, 0x00, 0x00, 0x00, 0x00, 0x00, 0x00, 0x00, 0x00,
   0x00, 0x00, 0x00, 0x00, 0x00, 0x00, 0x00, 0x00, 0x00, 0x00, 0x00, 0x00,
   0x00, 0x00, 0x00, 0x00, 0x00, 0x00, 0x00, 0x00, 0x00, 0x00, 0x00, 0x00,
   0x00, 0x00, 0x00, 0x00, 0x00, 0x00, 0x00, 0x00, 0x00, 0x00, 0x00, 0x00,
   0x00, 0x00, 0x00, 0x00, 0x00, 0x00, 0x00, 0x00, 0x00, 0x00, 0x00, 0x00,
   0x00, 0x00, 0x00, 0x00, 0x00, 0x00, 0x00, 0x00, 0x00, 0x00, 0x00, 0x00,
   0x00, 0x00, 0x00, 0x00, 0x00, 0x00, 0x00, 0x00, 0x00, 0x00, 0x00, 0x00,
   0x00, 0x00, 0x00, 0x00, 0x00, 0x00, 0x00, 0x00, 0x00, 0x00, 0x00, 0x00,
   0x00, 0x00, 0x00, 0x00, 0x00, 0x00, 0x00, 0x00, 0x00, 0x00, 0x00, 0x00,
   0x00, 0x00, 0x00, 0x00, 0x00, 0x00, 0x00, 0x00, 0x00, 0x00, 0x00, 0x00,
   0x00, 0x00, 0x00, 0x00, 0x00, 0x00, 0x00, 0x00, 0x00, 0x00, 0x00, 0x00,
   0x00, 0x00, 0x00, 0x00, 0x00, 0x00, 0x00, 0x00, 0x00, 0x00, 0x00, 0x00,
   0x00, 0x00, 0x00, 0x00, 0x00, 0x00, 0x00, 0x00, 0x00, 0x00, 0x00, 0x00,
   0x00, 0x00, 0x00, 0x00, 0x00, 0x00, 0x00, 0x00, 0x00, 0x00, 0x00, 0x00,
   0x00, 0x00, 0x00, 0x00, 0x00, 0x00, 0x00, 0x00, 0x00, 0x00, 0x00, 0x00,
   0x00, 0x00, 0x00, 0x00, 0x00, 0x00, 0x00, 0x00, 0x00, 0x00, 0x00, 0x00,
   0x00, 0x00, 0x00, 0x00, 0x00, 0x00, 0x00, 0x00, 0x00, 0x00, 0x00, 0x00,
   0x00, 0x00, 0x00, 0x00, 0x00, 0x00, 0x00, 0x00, 0x00, 0x00, 0x00, 0x00,
   0x00, 0x00, 0x00, 0x00, 0x00, 0x00, 0x00, 0x00, 0x00, 0x00, 0x00, 0x00,
   0x00, 0x00, 0x00, 0x00, 0x00, 0x00, 0x00, 0x00, 0x00, 0x00, 0x00, 0x00,
   0x00, 0x00, 0x00, 0x00, 0x00, 0x00, 0x00, 0x00, 0x00, 0x00, 0x00, 0x00,
   0x00, 0x00, 0x00, 0x00, 0x00, 0x00, 0x00, 0x00, 0x00, 0x00, 0x00, 0x00,
   0x00, 0x00, 0x00, 0x00, 0x00, 0x00, 0x00, 0x00, 0x00, 0x00, 0x00, 0x00,
   0x00, 0x00, 0x00, 0x00, 0x00, 0x00, 0x00, 0x00, 0x00, 0x00, 0x00, 0x00,
   0x00, 0x00, 0x00, 0x00, 0x00, 0x00, 0x00, 0x00, 0x00, 0x00, 0x00, 0x00,
   0x00, 0x00, 0x00, 0x00, 0x00, 0x00, 0x00, 0x00, 0x00, 0x00, 0x00, 0x00,
   0x00, 0x00, 0x00, 0x00, 0x00, 0x00, 0x00, 0x00, 0x00, 0x00, 0x00, 0x00,
   0x00, 0x00, 0x00, 0x00, 0x00, 0x00, 0x00, 0x00, 0x00, 0x00, 0x00, 0x00,
   0x00, 0x00, 0x00, 0x00, 0x00, 0x00, 0x00, 0x00, 0x00, 0x00, 0x00, 0x00,
   0x00, 0x00, 0x00, 0x00, 0x00, 0x00, 0x00, 0x80, 0x07, 0x00, 0x00, 0x00,
   0x00, 0x00, 0x00, 0x00, 0x00, 0x00, 0x00, 0x00, 0x00, 0x00, 0x00, 0x00,
   0x00, 0x00, 0x00, 0x00, 0x00, 0x00, 0x00, 0x00, 0x00, 0x00, 0x00, 0x00,
   0x00, 0x00, 0x00, 0x00, 0x00, 0x00, 0x00, 0x00, 0xe0, 0x0f, 0x00, 0x00,
   0x00, 0x00, 0x00, 0x00, 0x00, 0x00, 0x00, 0x00, 0x00, 0x00, 0x00, 0x00,
   0x00, 0x00, 0x00, 0x00, 0x00, 0x00, 0x00, 0x00, 0x00, 0x00, 0x00, 0x00,
   0x00, 0x00, 0x00, 0x00, 0x00, 0x00, 0x00, 0x00, 0x00, 0xf8, 0x3f, 0x00,
   0x00, 0x00, 0x00, 0x00, 0x00, 0x00, 0x00, 0x00, 0x00, 0x00, 0x00, 0x00,
   0x00, 0x00, 0x00, 0x00, 0x00, 0x00, 0x00, 0x00, 0x00, 0x00, 0x00, 0x00,
   0x00, 0x00, 0x00, 0x00, 0x00, 0x00, 0x00, 0x00, 0x00, 0x00, 0xfc, 0xff,
   0x00, 0x00, 0x00, 0x00, 0x00, 0x00, 0x00, 0x00, 0x00, 0x00, 0x00, 0x00,
   0x00, 0x00, 0x00, 0x00, 0x00, 0x00, 0x00, 0x00, 0x00, 0x00, 0x00, 0x00,
   0x00, 0x00, 0x00, 0x00, 0x00, 0x00, 0x00, 0x00, 0x00, 0x00, 0x00, 0xff,
   0xff, 0x01, 0x00, 0x00, 0x00, 0x00, 0x00, 0x00, 0x00, 0x00, 0x00, 0x00,
   0x00, 0x00, 0x00, 0x00, 0x00, 0x00, 0x00, 0x00, 0x00, 0x00, 0x00, 0x00,
   0x00, 0x00, 0x00, 0x00, 0x00, 0x00, 0x00, 0x00, 0x00, 0x00, 0x00, 0xc0,
   0xff, 0xff, 0x07, 0x00, 0x00, 0x00, 0x00, 0x00, 0x00, 0x00, 0x00, 0x00,
   0x00, 0x00, 0x00, 0x00, 0x00, 0x00, 0x00, 0x00, 0x00, 0x00, 0x00, 0x00,
   0x00, 0x00, 0x00, 0x00, 0x00, 0x00, 0x00, 0x00, 0x00, 0x00, 0x00, 0x00,
   0xe0, 0xff, 0xff, 0x0f, 0x00, 0x00, 0x00, 0x00, 0x00, 0x00, 0x00, 0x00,
   0x00, 0x00, 0x00, 0x00, 0x00, 0x00, 0x00, 0x00, 0x00, 0x00, 0x00, 0x00,
   0x00, 0x00, 0x00, 0x00, 0x00, 0x00, 0x00, 0x00, 0x00, 0x00, 0x00, 0x00,
   0x00, 0xf8, 0xff, 0xff, 0x3f, 0x00, 0x00, 0x00, 0x00, 0x00, 0x00, 0x00,
   0x00, 0x00, 0x00, 0x00, 0x00, 0x00, 0x00, 0x00, 0x00, 0x00, 0x00, 0x00,
   0x00, 0x00, 0x00, 0x00, 0x00, 0x00, 0x00, 0x00, 0x00, 0x00, 0x00, 0x00,
   0x00, 0x00, 0xfc, 0xff, 0xff, 0xff, 0x00, 0x00, 0x00, 0x00, 0x00, 0x00,
   0x00, 0x00, 0x00, 0x00, 0x00, 0x00, 0x00, 0x00, 0x00, 0x00, 0x00, 0x00,
   0x00, 0x00, 0x00, 0x00, 0x00, 0x00, 0x00, 0x00, 0x00, 0x00, 0x00, 0x00,
   0x00, 0x00, 0x00, 0xff, 0xff, 0xff, 0xff, 0x01, 0x00, 0x00, 0x00, 0x00,
   0x00, 0x00, 0x00, 0x00, 0x00, 0x00, 0x00, 0x00, 0x00, 0x00, 0x00, 0x00,
   0x00, 0x00, 0x00, 0x00, 0x00, 0x00, 0x00, 0x00, 0x00, 0x00, 0x00, 0x00,
   0x00, 0x00, 0x00, 0xc0, 0xff, 0xff, 0xff, 0xff, 0x07, 0x00, 0x00, 0x00,
   0x00, 0x00, 0x00, 0x00, 0x00, 0x00, 0x00, 0x00, 0x00, 0x00, 0x00, 0x00,
   0x00, 0x00, 0x00, 0x00, 0x00, 0x00, 0x00, 0x00, 0x00, 0x00, 0x00, 0x00,
   0x00, 0x00, 0x00, 0x00, 0xe0, 0xff, 0xff, 0xff, 0xff, 0x0f, 0x00, 0x00,
   0x00, 0x00, 0x00, 0x00, 0x00, 0x00, 0x00, 0x00, 0x00, 0x00, 0x00, 0x00,
   0x00, 0x00, 0x00, 0x00, 0x00, 0x00, 0x00, 0x00, 0x00, 0x00, 0x00, 0x00,
   0x00, 0x00, 0x00, 0x00, 0x00, 0xf8, 0xff, 0xff, 0xff, 0xff, 0x3f, 0x00,
   0x00, 0x00, 0x00, 0x00, 0x00, 0x00, 0x00, 0x00, 0x00, 0x00, 0x00, 0x00,
   0x00, 0x00, 0x00, 0x00, 0x00, 0x00, 0x00, 0x00, 0x00, 0x00, 0x00, 0x00,
   0x00, 0x00, 0x00, 0x00, 0x00, 0x00, 0xfc, 0xff, 0xff, 0xff, 0xff, 0xff,
   0x00, 0x00, 0x00, 0x00, 0x00, 0x00, 0x00, 0x00, 0x00, 0x00, 0x00, 0x00,
   0x00, 0x00, 0x00, 0x00, 0x00, 0x00, 0x00, 0x00, 0x00, 0x00, 0x00, 0x00,
   0x00, 0x00, 0x00, 0x00, 0x00, 0x00, 0x00, 0xff, 0xff, 0xff, 0xff, 0xff,
   0xff, 0x01, 0x00, 0x00, 0x00, 0x00, 0x00, 0x00, 0x00, 0x00, 0x00, 0x00,
   0x00, 0x00, 0x00, 0x00, 0x00, 0x00, 0x00, 0x00, 0x00, 0x00, 0x00, 0x00,
   0x00, 0x00, 0x00, 0x00, 0x00, 0x00, 0x00, 0xc0, 0xff, 0xff, 0xff, 0xff,
   0xff, 0xff, 0x07, 0x00, 0x00, 0x00, 0x00, 0x00, 0x00, 0x00, 0x00, 0x00,
   0x00, 0x00, 0x00, 0x00, 0x00, 0x00, 0x00, 0x00, 0x00, 0x00, 0x00, 0x00,
   0x00, 0x00, 0x00, 0x00, 0x00, 0x00, 0x00, 0x00, 0xe0, 0xff, 0xff, 0xff,
   0xff, 0xff, 0xff, 0x0f, 0x00, 0x00, 0x00, 0x00, 0x00, 0x00, 0x00, 0x00,
   0x00, 0x00, 0x00, 0x00, 0x00, 0x00, 0x00, 0x00, 0x00, 0x00, 0x00, 0x00,
   0x00, 0x00, 0x00, 0x00, 0x00, 0x00, 0x00, 0x00, 0x00, 0xf8, 0xff, 0xff,
   0xff, 0xff, 0xff, 0xff, 0x3f, 0x00, 0x00, 0x00, 0x00, 0x00, 0x00, 0x00,
   0x00, 0x00, 0x00, 0x00, 0x00, 0x00, 0x00, 0x00, 0x00, 0x00, 0x00, 0x00,
   0x00, 0x00, 0x00, 0x00, 0x00, 0x00, 0x00, 0x00, 0x00, 0x00, 0xfc, 0xff,
   0xff, 0xff, 0xff, 0xff, 0xff, 0x7f, 0x00, 0x00, 0x00, 0x00, 0x00, 0x00,
   0x00, 0x00, 0x00, 0x00, 0x00, 0x00, 0x00, 0x00, 0x00, 0x00, 0x00, 0x00,
   0x00, 0x00, 0x00, 0x00, 0x00, 0x00, 0x00, 0x00, 0x00, 0x00, 0x00, 0xfe,
   0xff, 0xff, 0xff, 0xff, 0xff, 0xff, 0xff, 0x00, 0x00, 0x00, 0x00, 0x00,
   0x00, 0x00, 0x00, 0x00, 0x00, 0x00, 0x00, 0x00, 0x00, 0x00, 0x00, 0x00,
   0x00, 0x00, 0x00, 0x00, 0x00, 0x00, 0x00, 0x00, 0x00, 0x00, 0x00, 0x00,
   0xfe, 0xff, 0xff, 0xff, 0xff, 0xff, 0xff, 0xff, 0x00, 0x00, 0x00, 0x00,
   0xe0, 0x7f, 0x00, 0x00, 0x00, 0x00, 0x00, 0x00, 0x00, 0x00, 0x00, 0xe0,
   0x01, 0x00, 0x00, 0x00, 0x00, 0x00, 0x00, 0x00, 0x00, 0x00, 0x00, 0x00,
   0x00, 0xfe, 0xff, 0xff, 0xff, 0xff, 0xff, 0xff, 0xff, 0x00, 0x00, 0x00,
   0x00, 0xfc, 0xff, 0x07, 0x00, 0x00, 0x00, 0x00, 0x00, 0x00, 0xe0, 0x1f,
   0xf0, 0x07, 0x00, 0x00, 0x00, 0x00, 0x00, 0x00, 0x00, 0xc0, 0x3f, 0x00,
   0x00, 0x00, 0xfe, 0xff, 0xff, 0xff, 0xff, 0xff, 0xff, 0xff, 0x00, 0x00,
   0x00, 0x80, 0xff, 0xff, 0x3f, 0x00, 0x00, 0x00, 0x00, 0x00, 0x00, 0xe0,
   0x1f, 0xf8, 0x0f, 0x00, 0x00, 0x00, 0x00, 0x00, 0x00, 0x00, 0xc0, 0x3f,
   0x00, 0x00, 0x00, 0xfe, 0xff, 0xff, 0xff, 0xff, 0xff, 0xff, 0xff, 0x00,
   0x00, 0x00, 0xe0, 0xff, 0xff, 0x7f, 0x00, 0x00, 0x00, 0x00, 0x00, 0x00,
   0xe0, 0x1f, 0xf8, 0x0f, 0x00, 0x00, 0x00, 0x00, 0x00, 0x00, 0x00, 0xc0,
   0x3f, 0x00, 0x00, 0x00, 0xfe, 0xff, 0xff, 0xff, 0xff, 0xff, 0xff, 0xff,
   0x00, 0x00, 0x00, 0xf0, 0xff, 0xff, 0xff, 0x01, 0x00, 0x00, 0x00, 0x00,
   0x00, 0xe0, 0x1f, 0xfc, 0x0f, 0x00, 0x00, 0x00, 0x00, 0x00, 0x00, 0x00,
   0xc0, 0x3f, 0x00, 0x00, 0x00, 0xfe, 0xff, 0xff, 0x1f, 0xf0, 0xff, 0xff,
   0xff, 0x00, 0x00, 0x00, 0xf8, 0xff, 0xff, 0xff, 0x03, 0x00, 0x00, 0x00,
   0x00, 0x00, 0xe0, 0x1f, 0xfc, 0x0f, 0x00, 0x00, 0x00, 0x00, 0x00, 0x00,
   0x00, 0xc0, 0x3f, 0x00, 0x00, 0x00, 0xfe, 0xff, 0xff, 0x07, 0xc0, 0xff,
   0xff, 0xff, 0x00, 0x00, 0x00, 0xfe, 0xff, 0xff, 0xff, 0x07, 0x00, 0x00,
   0x00, 0x00, 0x00, 0xe0, 0x1f, 0xf8, 0x0f, 0x00, 0x00, 0x00, 0x00, 0x00,
   0xfc, 0x01, 0xc0, 0x3f, 0x00, 0x00, 0x00, 0xfe, 0xff, 0xff, 0x03, 0x80,
   0xff, 0xff, 0xff, 0x00, 0x00, 0x00, 0xff, 0xff, 0xff, 0xff, 0x0f, 0x00,
   0x00, 0x00, 0x00, 0x00, 0xe0, 0x1f, 0xf8, 0x0f, 0x00, 0x00, 0x00, 0x00,
   0x00, 0xfe, 0x01, 0xc0, 0x3f, 0x00, 0x00, 0x00, 0xfe, 0xff, 0xff, 0x01,
   0x00, 0xff, 0xff, 0xff, 0x00, 0x00, 0x80, 0xff, 0x7f, 0xc0, 0xff, 0x1f,
   0x00, 0x00, 0x00, 0x00, 0x00, 0xe0, 0x1f, 0xf0, 0x07, 0x00, 0x00, 0x00,
   0x00, 0x00, 0xfe, 0x01, 0xc0, 0x3f, 0x00, 0x00, 0x00, 0xfe, 0xff, 0xff,
   0x01, 0x00, 0xfe, 0xff, 0xff, 0x00, 0x00, 0x80, 0xff, 0x0f, 0x00, 0xfe,
   0x3f, 0x00, 0x00, 0x00, 0x00, 0x00, 0xe0, 0x1f, 0xe0, 0x03, 0x00, 0x00,
   0x00, 0x00, 0x00, 0xfe, 0x01, 0xc0, 0x3f, 0x00, 0x00, 0x00, 0xfe, 0xff,
   0xff, 0x00, 0x00, 0xfe, 0xff, 0xff, 0x00, 0x00, 0xc0, 0xff, 0x03, 0x00,
   0xf8, 0x3f, 0x00, 0x00, 0x00, 0x00, 0x00, 0xe0, 0x1f, 0x00, 0x00, 0x00,
   0x00, 0x00, 0x00, 0x00, 0xfe, 0x01, 0xc0, 0x3f, 0x00, 0x00, 0x00, 0xfe,
   0xff, 0xff, 0x00, 0x00, 0xfc, 0xff, 0x7f, 0x00, 0x00, 0xe0, 0xff, 0x00,
   0x00, 0xf0, 0x7f, 0x00, 0x00, 0x00, 0x00, 0x00, 0xe0, 0x1f, 0x00, 0x00,
   0x00, 0x00, 0x00, 0x00, 0x00, 0xfe, 0x01, 0xc0, 0x3f, 0x00, 0x00, 0x00,
   0xfe, 0xff, 0xff, 0x00, 0x00, 0x00, 0x00, 0x00, 0x00, 0x00, 0xe0, 0x7f,
   0x00, 0x00, 0xe0, 0x7f, 0x00, 0x00, 0x00, 0x00, 0x00, 0xe0, 0x1f, 0x00,
   0x00, 0x00, 0x00, 0x00, 0x00, 0x00, 0xfe, 0x01, 0xc0, 0x3f, 0x00, 0x00,
   0x00, 0xfe, 0xff, 0x7f, 0x00, 0x00, 0x00, 0x00, 0x00, 0x00, 0x00, 0xf0,
   0x3f, 0x00, 0x00, 0xc0, 0x1f, 0x00, 0x00, 0x00, 0x00, 0x00, 0xe0, 0x1f,
   0x00, 0x00, 0x00, 0x00, 0x00, 0x00, 0x00, 0xfe, 0x01, 0xc0, 0x3f, 0x00,
   0x00, 0x00, 0xfe, 0xff, 0xff, 0x00, 0x00, 0x00, 0x00, 0x00, 0x00, 0x00,
   0xf0, 0x1f, 0x00, 0x00, 0x80, 0x07, 0x00, 0x00, 0x00, 0x00, 0x00, 0xe0,
   0x1f, 0x00, 0x00, 0x00, 0x00, 0x00, 0x00, 0x00, 0xfe, 0x01, 0xc0, 0x3f,
   0x00, 0x00, 0x00, 0xfe, 0xff, 0xff, 0x00, 0x00, 0x00, 0x00, 0x00, 0x00,
   0x00, 0xf8, 0x1f, 0x00, 0x00, 0x00, 0x01, 0x00, 0x00, 0xf0, 0x0f, 0x00,
   0xe0, 0x1f, 0x00, 0x00, 0x00, 0xe0, 0x1f, 0x00, 0x00, 0xfe, 0x01, 0xc0,
   0x3f, 0xe0, 0x1f, 0x00, 0xfe, 0xff, 0xff, 0x00, 0x00, 0xfe, 0xff, 0xff,
   0x00, 0x00, 0xf8, 0x0f, 0x00, 0x00, 0x00, 0x00, 0x00, 0x00, 0xfe, 0x7f,
   0x00, 0xe0, 0x1f, 0xf8, 0x07, 0x00, 0xfc, 0xff, 0x00, 0xf8, 0xff, 0xff,
   0xc3, 0x3f, 0xf8, 0xff, 0x00, 0xfe, 0xff, 0xff, 0x00, 0x00, 0xfe, 0xff,
   0xff, 0x00, 0x00, 0xfc, 0x0f, 0x00, 0x00, 0x00, 0x00, 0x00, 0x80, 0xff,
   0xff, 0x01, 0xe0, 0x1f, 0xf8, 0x07, 0x00, 0xff, 0xff, 0x03, 0xf8, 0xff,
   0xff, 0xc3, 0x3f, 0xfe, 0xff, 0x01, 0xfe, 0xff, 0xff, 0x01, 0x00, 0xff,
   0xff, 0xff, 0x00, 0x00, 0xfc, 0x07, 0x00, 0x00, 0x00, 0x00, 0x00, 0xe0,
   0xff, 0xff, 0x07, 0xe0, 0x1f, 0xf8, 0x07, 0xc0, 0xff, 0xff, 0x0f, 0xf8,
   0xff, 0xff, 0xc3, 0x3f, 0xff, 0xff, 0x07, 0xfe, 0xff, 0xff, 0x03, 0x00,
   0xff, 0xff, 0xff, 0x00, 0x00, 0xfc, 0x07, 0x00, 0x00, 0x00, 0x00, 0x00,
   0xf0, 0xff, 0xff, 0x0f, 0xe0, 0x1f, 0xf8, 0x07, 0xe0, 0xff, 0xff, 0x1f,
   0xf8, 0xff, 0xff, 0xc3, 0xbf, 0xff, 0xff, 0x07, 0xfe, 0xff, 0xff, 0x07,
   0x80, 0xff, 0xff, 0xff, 0x00, 0x00, 0xfc, 0x03, 0x00, 0x00, 0x00, 0x00,
   0x00, 0xf8, 0xff, 0xff, 0x1f, 0xe0, 0x1f, 0xf8, 0x07, 0xf0, 0xff, 0xff,
   0x3f, 0xf8, 0xff, 0xff, 0xc3, 0xff, 0xff, 0xff, 0x0f, 0xfe, 0xff, 0xff,
   0x0f, 0xe0, 0xff, 0xff, 0xff, 0x00, 0x00, 0xfc, 0x03, 0x00, 0x00, 0x00,
   0x00, 0x00, 0xfc, 0xff, 0xff, 0x3f, 0xe0, 0x1f, 0xf8, 0x07, 0xf8, 0xff,
   0xff, 0x7f, 0xf8, 0xff, 0xff, 0xc3, 0xff, 0xff, 0xff, 0x1f, 0xfe, 0xff,
   0xff, 0x3f, 0xf8, 0xff, 0xff, 0xff, 0x00, 0x00, 0xfe, 0x03, 0x00, 0x00,
   0x00, 0x00, 0x00, 0xfe, 0xff, 0xff, 0x7f, 0xe0, 0x1f, 0xf8, 0x07, 0xfc,
   0xff, 0xff, 0xff, 0xf8, 0xff, 0xff, 0xc3, 0xff, 0xff, 0xff, 0x1f, 0xfe,
   0xff, 0xff, 0xff, 0xff, 0xff, 0xff, 0xff, 0x00, 0x00, 0xfe, 0x03, 0x00,
   0x80, 0xff, 0xff, 0x00, 0xfe, 0x0f, 0xf0, 0x7f, 0xe0, 0x1f, 0xf8, 0x07,
   0xfc, 0x1f, 0xe0, 0xff, 0x00, 0xfe, 0x01, 0xc0, 0xff, 0x07, 0xf8, 0x3f,
   0xfe, 0xff, 0xff, 0xff, 0xff, 0xff, 0xff, 0xff, 0x00, 0x00, 0xfe, 0x03,
   0x00, 0x80, 0xff, 0xff, 0x01, 0xff, 0x03, 0xc0, 0xff, 0xe0, 0x1f, 0xf8,
   0x07, 0xfe, 0x07, 0x80, 0xff, 0x01, 0xfe, 0x01, 0xc0, 0xff, 0x01, 0xf0,
   0x3f, 0xfe, 0xff, 0xff, 0xff, 0xff, 0xff, 0xff, 0xff, 0x00, 0x00, 0xfe,
   0x03, 0x00, 0x80, 0xff, 0xff, 0x03, 0xff, 0x01, 0x80, 0xff, 0xe0, 0x1f,
   0xf8, 0x07, 0xfe, 0x03, 0x00, 0xff, 0x01, 0xfe, 0x01, 0xc0, 0xff, 0x00,
   0xe0, 0x3f, 0xfe, 0xff, 0xff, 0xff, 0xff, 0xff, 0xff, 0xff, 0x00, 0x00,
   0xfe, 0x03, 0x00, 0x80, 0xff, 0xff, 0x83, 0xff, 0x00, 0x00, 0xff, 0xe1,
   0x1f, 0xf8, 0x07, 0xff, 0x01, 0x00, 0xfe, 0x03, 0xfe, 0x01, 0xc0, 0x7f,
   0x00, 0xc0, 0x7f, 0xfe, 0xff, 0xff, 0xff, 0xff, 0xff, 0xff, 0xff, 0x00,
   0x00, 0xfe, 0x03, 0x00, 0x80, 0xff, 0xff, 0x83, 0x7f, 0x00, 0x00, 0xfe,
   0xe1, 0x1f, 0xf8, 0x07, 0xff, 0x00, 0x00, 0xfc, 0x03, 0xfe, 0x01, 0xc0,
   0x7f, 0x00, 0xc0, 0x7f, 0xfe, 0xff, 0xff, 0xff, 0xff, 0xff, 0xff, 0xff,
   0x00, 0x00, 0xfe, 0x03, 0x00, 0x80, 0xff, 0xff, 0x83, 0x7f, 0x00, 0x00,
   0xfe, 0xe1, 0x1f, 0xf8, 0x07, 0xff, 0x00, 0x00, 0xfc, 0x07, 0xfe, 0x01,
   0xc0, 0x7f, 0x00, 0x80, 0x7f, 0xfe, 0xff, 0xff, 0xff, 0xff, 0xff, 0xff,
   0xff, 0x00, 0x00, 0xfc, 0x03, 0x00, 0x80, 0xff, 0xff, 0xc3, 0x3f, 0x00,
   0x00, 0xfc, 0xe3, 0x1f, 0xf8, 0x07, 0xff, 0x00, 0x00, 0xf8, 0x07, 0xfe,
   0x01, 0xc0, 0x3f, 0x00, 0x80, 0x7f, 0xfc, 0xff, 0xff, 0xff, 0xff, 0xff,
   0xff, 0xff, 0x00, 0x00, 0xfc, 0x07, 0x00, 0x80, 0xff, 0xff, 0xc3, 0x3f,
   0x00, 0x00, 0xfc, 0xe3, 0x1f, 0xf8, 0x87, 0x7f, 0x00, 0x00, 0xf8, 0x07,
   0xfe, 0x01, 0xc0, 0x3f, 0x00, 0x80, 0x7f, 0xf8, 0xff, 0xff, 0xff, 0xff,
   0xff, 0xff, 0xff, 0x00, 0x00, 0xfc, 0x07, 0x00, 0x00, 0x00, 0xfc, 0xc3,
   0x3f, 0x00, 0x00, 0xfc, 0xe3, 0x1f, 0xf8, 0x87, 0x7f, 0x00, 0x00, 0xf8,
   0x07, 0xfe, 0x01, 0xc0, 0x3f, 0x00, 0x80, 0x7f, 0xf0, 0xff, 0xff, 0xff,
   0xff, 0xff, 0xff, 0xff, 0x00, 0x00, 0xfc, 0x07, 0x00, 0x00, 0x00, 0xfe,
   0xc3, 0x3f, 0x00, 0x00, 0xfc, 0xe3, 0x1f, 0xf8, 0x87, 0x7f, 0x00, 0x00,
   0xf8, 0x07, 0xfe, 0x01, 0xc0, 0x3f, 0x00, 0x80, 0x7f, 0xc0, 0xff, 0xff,
   0xff, 0xff, 0xff, 0xff, 0xff, 0x00, 0x00, 0xfc, 0x0f, 0x00, 0x00, 0x00,
   0xfe, 0xc3, 0x3f, 0x00, 0x00, 0xfc, 0xe3, 0x1f, 0xf8, 0x87, 0x7f, 0x00,
   0x00, 0xf8, 0x07, 0xfe, 0x01, 0xc0, 0x3f, 0x00, 0x80, 0x7f, 0x80, 0xff,
   0xff, 0xff, 0xff, 0xff, 0xff, 0xff, 0x00, 0x00, 0xf8, 0x0f, 0x00, 0x00,
   0x00, 0xfe, 0xc3, 0x3f, 0x00, 0x00, 0xfc, 0xe3, 0x1f, 0xf8, 0x87, 0x7f,
   0x00, 0x00, 0xf8, 0x07, 0xfe, 0x01, 0xc0, 0x3f, 0x00, 0x80, 0x7f, 0x00,
   0xfe, 0xff, 0xff, 0xff, 0xff, 0xff, 0xff, 0x00, 0x00, 0xf8, 0x1f, 0x00,
   0x00, 0x00, 0xff, 0xc3, 0x3f, 0x00, 0x00, 0xfc, 0xe3, 0x1f, 0xf8, 0x87,
   0x7f, 0x00, 0x00, 0xf8, 0x07, 0xfe, 0x01, 0xc0, 0x3f, 0x00, 0x80, 0x7f,
   0x00, 0xfc, 0xff, 0xff, 0xff, 0xff, 0xff, 0xff, 0x00, 0x00, 0xf0, 0x3f,
   0x00, 0x00, 0x80, 0xff, 0xc3, 0x3f, 0x00, 0x00, 0xfc, 0xe3, 0x1f, 0xf8,
   0x07, 0xff, 0x00, 0x00, 0xf8, 0x07, 0xfe, 0x01, 0xc0, 0x3f, 0x00, 0x80,
   0x7f, 0x00, 0xf0, 0xff, 0xff, 0xff, 0xff, 0xff, 0xff, 0x00, 0x00, 0xf0,
   0x7f, 0x00, 0x00, 0x80, 0xff, 0x83, 0x7f, 0x00, 0x00, 0xfe, 0xe1, 0x1f,
   0xf8, 0x07, 0xff, 0x00, 0x00, 0xfc, 0x07, 0xfe, 0x01, 0xc0, 0x3f, 0x00,
   0x80, 0x7f, 0x00, 0xc0, 0xff, 0xff, 0xff, 0xff, 0xff, 0xff, 0x00, 0x00,
   0xe0, 0xff, 0x00, 0x00, 0xc0, 0xff, 0x83, 0x7f, 0x00, 0x00, 0xfe, 0xe1,
   0x1f, 0xf8, 0x07, 0xff, 0x00, 0x00, 0xfc, 0x03, 0xfe, 0x01, 0xc0, 0x3f,
   0x00, 0x80, 0x7f, 0x00, 0x80, 0xff, 0xff, 0xff, 0xff, 0xff, 0xff, 0x00,
   0x00, 0xe0, 0xff, 0x01, 0x00, 0xe0, 0xff, 0x83, 0xff, 0x00, 0x00, 0xff,
   0xe1, 0x1f, 0xf8, 0x07, 0xff, 0x01, 0x00, 0xfe, 0x03, 0xfe, 0x01, 0xc0,
   0x3f, 0x00, 0x80, 0x7f, 0x00, 0x00, 0xfe, 0xff, 0xff, 0xff, 0xff, 0xff,
   0x00, 0x00, 0xc0, 0xff, 0x03, 0x00, 0xf8, 0xff, 0x03, 0xff, 0x01, 0x80,
   0xff, 0xe0, 0x1f, 0xf8, 0x07, 0xfe, 0x03, 0x00, 0xff, 0x03, 0xfe, 0x01,
   0xc0, 0x3f, 0x00, 0x80, 0x7f, 0x00, 0x00, 0xfc, 0xff, 0xff, 0xff, 0xff,
   0xff, 0x00, 0x00, 0x80, 0xff, 0x0f, 0x00, 0xfe, 0xff, 0x03, 0xff, 0x03,
   0xc0, 0xff, 0xe0, 0x1f, 0xf8, 0x07, 0xfe, 0x07, 0x80, 0xff, 0x01, 0xfe,
   0x01, 0xc0, 0x3f, 0x00, 0x80, 0x7f, 0x00, 0x00, 0xf0, 0xff, 0xff, 0xff,
   0xff, 0xff, 0x00, 0x00, 0x80, 0xff, 0x7f, 0xc0, 0xff, 0xff, 0x03, 0xfe,
   0x0f, 0xf0, 0x7f, 0xe0, 0x1f, 0xf8, 0x07, 0xfc, 0x1f, 0xe0, 0xff, 0x00,
   0xfe, 0xff, 0xc1, 0x3f, 0x00, 0x80, 0x7f, 0x00, 0x00, 0xc0, 0xff, 0xff,
   0xff, 0xff, 0xff, 0x00, 0x00, 0x00, 0xff, 0xff, 0xff, 0xff, 0xff, 0x03,
   0xfe, 0xff, 0xff, 0x7f, 0xe0, 0x1f, 0xf8, 0x07, 0xfc, 0xff, 0xff, 0xff,
   0x00, 0xfe, 0xff, 0xc1, 0x3f, 0x00, 0x80, 0x7f, 0x00, 0x00, 0x80, 0xff,
   0xff, 0xff, 0xff, 0xff, 0x00, 0x00, 0x00, 0xfe, 0xff, 0xff, 0xff, 0xff,
   0x03, 0xfc, 0xff, 0xff, 0x3f, 0xe0, 0x1f, 0xf8, 0x07, 0xf8, 0xff, 0xff,
   0x7f, 0x00, 0xfe, 0xff, 0xc1, 0x3f, 0x00, 0x80, 0x7f, 0x00, 0x00, 0x00,
   0xfe, 0xff, 0xff, 0xff, 0xff, 0x00, 0x00, 0x00, 0xfc, 0xff, 0xff, 0xff,
   0xff, 0x03, 0xf8, 0xff, 0xff, 0x1f, 0xe0, 0x1f, 0xf8, 0x07, 0xf0, 0xff,
   0xff, 0x3f, 0x00, 0xfe, 0xff, 0xc1, 0x3f, 0x00, 0x80, 0x7f, 0x00, 0x00,
   0x00, 0xfc, 0xff, 0xff, 0xff, 0xff, 0x00, 0x00, 0x00, 0xf0, 0xff, 0xff,
   0xff, 0xfd, 0x03, 0xf0, 0xff, 0xff, 0x0f, 0xe0, 0x1f, 0xf8, 0x07, 0xe0,
   0xff, 0xff, 0x1f, 0x00, 0xfc, 0xff, 0xc1, 0x3f, 0x00, 0x80, 0x7f, 0x00,
   0x00, 0x00, 0xf0, 0xff, 0xff, 0xff, 0xff, 0x00, 0x00, 0x00, 0xe0, 0xff,
   0xff, 0x7f, 0xfc, 0x03, 0xe0, 0xff, 0xff, 0x07, 0xe0, 0x1f, 0xf8, 0x07,
   0xc0, 0xff, 0xff, 0x0f, 0x00, 0xfc, 0xff, 0xc1, 0x3f, 0x00, 0x80, 0x7f,
   0x00, 0x00, 0x00, 0xc0, 0xff, 0xff, 0xff, 0xff, 0x00, 0x00, 0x00, 0x80,
   0xff, 0xff, 0x1f, 0xfc, 0x03, 0x80, 0xff, 0xff, 0x01, 0xe0, 0x1f, 0xf8,
   0x07, 0x00, 0xff, 0xff, 0x03, 0x00, 0xf8, 0xff, 0xc1, 0x3f, 0x00, 0x80,
   0x7f, 0x00, 0x00, 0x00, 0x80, 0xff, 0xff, 0xff, 0xff, 0x00, 0x00, 0x00,
   0x00, 0xfc, 0xff, 0x07, 0xfc, 0x03, 0x00, 0xfe, 0x7f, 0x00, 0xe0, 0x1f,
   0xf8, 0x07, 0x00, 0xfc, 0xff, 0x00, 0x00, 0xf0, 0xff, 0xc1, 0x3f, 0x00,
   0x80, 0x7f, 0x00, 0x00, 0x00, 0x00, 0x00, 0x00, 0x00, 0x00, 0x00, 0x00,
   0x00, 0x00, 0xe0, 0x7f, 0x00, 0x00, 0x00, 0x00, 0xf0, 0x0f, 0x00, 0x00,
   0x00, 0x00, 0x00, 0x00, 0xe0, 0x1f, 0x00, 0x00, 0x00, 0x00, 0x00, 0x00,
   0x00, 0x00, 0x00, 0x00, 0x00, 0x00, 0x00, 0x00, 0x00, 0x00, 0x00, 0x00,
   0x00, 0x00, 0x00, 0x00, 0x00, 0x00, 0x00, 0x00, 0x00, 0x00, 0x00, 0x00,
   0x00, 0x00, 0x00, 0x00, 0x00, 0x00, 0x00, 0x00, 0x00, 0x00, 0x00, 0x00,
   0x00, 0x00, 0x00, 0x00, 0x00, 0x00, 0x00, 0x00, 0x00, 0x00, 0x00, 0x00,
   0x00, 0x00, 0x00, 0x00, 0x00, 0x00, 0x00, 0x00, 0x00, 0x00, 0x00, 0x00,
   0x00, 0x00, 0x00, 0x00, 0x00, 0x00, 0x00, 0x00, 0x00, 0x00, 0x00, 0x00,
   0x00, 0x00, 0x00, 0x00, 0x00, 0x00, 0x00, 0x00, 0x00, 0x00, 0x00, 0x00,
   0x00, 0x00, 0x00, 0x00, 0x00, 0x00, 0x00, 0x00, 0x00, 0x00, 0x00, 0x00,
   0x00, 0x00, 0x00, 0x00, 0x00, 0x00, 0x00, 0x00, 0x00, 0x00, 0x00, 0x00,
   0x00, 0x00, 0x00, 0x00, 0x00, 0x00, 0x00, 0x00, 0x00, 0x00, 0x00, 0x00,
   0x00, 0x00, 0x00, 0x00, 0x00, 0x00, 0x00, 0x00, 0x00, 0x00, 0x00, 0x00,
   0x00, 0x00, 0x00, 0x00, 0x00, 0x00, 0x00, 0x00, 0x00, 0x00, 0x00, 0x00,
   0x00, 0x00, 0x00, 0x00, 0x00, 0x00, 0x00, 0x00, 0x00, 0x00, 0x00, 0x00,
   0x00, 0x00, 0x00, 0x00, 0x00, 0x00, 0x00, 0x00, 0x00, 0x00, 0x00, 0x00,
   0x00, 0x00, 0x00, 0x00, 0x00, 0x00, 0x00, 0x00, 0x00, 0x00, 0x00, 0x00,
   0x00, 0x00, 0x00, 0x00, 0x00, 0x00, 0x00, 0x00, 0x00, 0x00, 0x00, 0x00,
   0x00, 0x00, 0x00, 0x00, 0x00, 0x00, 0x00, 0x00, 0x00, 0x00, 0x00, 0x00,
   0x00, 0x00, 0x00, 0x00, 0x00, 0x00, 0x00, 0x00, 0x00, 0x00, 0x00, 0x00,
   0x00, 0x00, 0x00, 0x00, 0x00, 0x00, 0x00, 0x00, 0x00, 0x00, 0x00, 0x00,
   0x00, 0x00, 0x00, 0x00, 0x00, 0x00, 0x00, 0x00, 0x00, 0x00, 0x00, 0x00,
   0x00, 0x00, 0x00, 0x00, 0x00, 0x00, 0x00, 0x00, 0x00, 0x00, 0x00, 0x00,
   0x00, 0x00, 0x00, 0x00, 0x00, 0x00, 0x00, 0x00, 0x00, 0x00, 0x00, 0x00,
   0x00, 0x00, 0x00, 0x00, 0x00, 0x00, 0x00, 0x00, 0x00, 0x00, 0x00, 0x00,
   0x00, 0x00, 0x00, 0x00, 0x00, 0x00, 0x00, 0x00, 0x00, 0x00, 0x00, 0x00,
   0x00, 0x00, 0x00, 0x00, 0x00, 0x00, 0x00, 0x00, 0x00, 0x00, 0x00, 0x00,
   0x00, 0x00, 0x00, 0x00, 0x00, 0x00, 0x00, 0x00, 0x00, 0x00, 0x00, 0x00,
   0x00, 0x00, 0x00, 0x00, 0x00, 0x00, 0x00, 0x00, 0x00, 0x00, 0x00, 0x00,
   0x00, 0x00, 0x00, 0x00, 0x00, 0x00, 0x00, 0x00, 0x00, 0x00, 0x00, 0x00,
   0x00, 0x00, 0x00, 0x00, 0x00, 0x00, 0x00, 0x00, 0x00, 0x00, 0x00, 0x00,
   0x00, 0x00, 0x00, 0x00, 0x00, 0x00, 0x00, 0x00, 0x00, 0x00, 0x00, 0x00,
   0x00, 0x00, 0x00, 0x00, 0x00, 0x00, 0x00, 0x00, 0x00, 0x00, 0x00, 0x00,
   0x00, 0x00, 0x00, 0x00, 0x00, 0x00, 0x00, 0x00, 0x00, 0x00, 0x00, 0x00,
   0x00, 0x00, 0x00, 0x00, 0x00, 0x00, 0x00, 0x00, 0x00, 0x00, 0x00, 0x00,
   0x00, 0x00, 0x00, 0x00, 0x00, 0x00, 0x00, 0x00, 0x00, 0x00, 0x00, 0x00,
   0x00, 0x00, 0x00, 0x00, 0x00, 0x00, 0x00, 0x00, 0x00, 0x00, 0x00, 0x00,
   0x00, 0x00, 0x00, 0x00, 0x00, 0x00, 0x00, 0x00, 0x00, 0x00, 0x00, 0x00,
   0x00, 0x00, 0x00, 0x00, 0x00, 0x00, 0x00, 0x00, 0x00, 0x00, 0x00, 0x00,
   0x00, 0x00, 0x00, 0x00, 0x00, 0x00, 0x00, 0x00, 0x00, 0x00, 0x00, 0x00,
   0x00, 0x00, 0x00, 0x00, 0x00, 0x00, 0x00, 0x00, 0x00, 0x00, 0x00, 0x00,
   0x00, 0x00, 0x00, 0x00, 0x00, 0x00, 0x00, 0x00, 0x00, 0x00, 0x00, 0x00,
   0x00, 0x00, 0x00, 0x00, 0x00, 0x00, 0x00, 0x00, 0x00, 0x00, 0x00, 0x00,
   0x00, 0x00, 0x00, 0x00, 0x00, 0x00, 0x00, 0x00, 0x00, 0x00, 0x00, 0x00,
   0x00, 0x00, 0x00, 0x00, 0x00, 0x00, 0x00, 0x00, 0x00, 0x00, 0x00, 0x00,
   0x00, 0x00, 0x00, 0x00, 0x00, 0x00, 0x00, 0x00, 0x00, 0x00, 0x00, 0x00,
   0x00, 0x00, 0x00, 0x00, 0x00, 0x00, 0x00, 0x00, 0x00, 0x00, 0x00, 0x00,
   0x00, 0x00, 0x00, 0x00, 0x00, 0x00, 0x00, 0x00, 0x00, 0x00, 0x00, 0x00,
   0x00, 0x00, 0x00, 0x00, 0x00, 0x00, 0x00, 0x00, 0x00, 0x00, 0x00, 0x00,
   0x00, 0x00, 0x00, 0x00, 0x00, 0x00, 0x00, 0x00, 0x00, 0x00, 0x00, 0x00,
   0x00, 0x00, 0x00, 0x00, 0x00, 0x00, 0x00, 0x00, 0x00, 0x00, 0x00, 0x00,
   0x00, 0x00, 0x00, 0x00, 0x00, 0x00, 0x00, 0x00, 0x00, 0x00, 0x00, 0x00,
   0x00, 0x00, 0x00, 0x00, 0x00, 0x00, 0x00, 0x00, 0x00, 0x00, 0x00, 0x00,
   0x00, 0x00, 0x00, 0x00, 0x00, 0x00, 0x00, 0x00, 0x00, 0x00, 0x00, 0x00,
   0x00, 0x00, 0x00, 0x00, 0x00, 0x00, 0x00, 0x00, 0x00, 0x00, 0x00, 0x00,
   0x00, 0x00, 0x00, 0x00, 0x00, 0x00, 0x00, 0x00, 0x00, 0x00, 0x00, 0x00,
   0x00, 0x00, 0x00, 0x00, 0x00, 0x00, 0x00, 0x00, 0x00, 0x00, 0x00, 0x00,
   0x00, 0x00, 0x00, 0x00, 0x00, 0x00, 0x00, 0x00, 0x00, 0x00, 0x00, 0x00,
   0x00, 0x00, 0x00, 0x00, 0x00, 0x00, 0x00, 0x00, 0x00, 0x00, 0x00, 0x00,
   0x00, 0x00, 0x00, 0x00, 0x00, 0x00, 0x00, 0x00, 0x00, 0x00, 0x00, 0x00,
   0x00, 0x00, 0x00, 0x00, 0x00, 0x00, 0x00, 0x00, 0x00, 0x00, 0x00, 0x00,
   0x00, 0x00, 0x00, 0x00, 0x00, 0x00, 0x00, 0x00, 0x00, 0x00, 0x00, 0x00,
   0x00, 0x00, 0x00, 0x00, 0x00, 0x00, 0x00, 0x00, 0x00, 0x00, 0x00, 0x00,
   0x00, 0x00, 0x00, 0x00, 0x00, 0x00, 0x00, 0x00, 0x00, 0x00, 0x00, 0x00,
   0x00, 0x00, 0x00, 0x00, 0x00, 0x00, 0x00, 0x00, 0x00, 0x00, 0x00, 0x00,
   0x00, 0x00, 0x00, 0x00, 0x00, 0x00, 0x00, 0x00, 0x00, 0x00, 0x00, 0x00,
   0x00, 0x00, 0x00, 0x00, 0x00, 0x00, 0x00, 0x00, 0x00, 0x00, 0x00, 0x00,
   0x00, 0x00, 0x00, 0x00, 0x00, 0x00, 0x00, 0x00, 0x00, 0x00, 0x00, 0x00,
   0x00, 0x00, 0x00, 0x00, 0x00, 0x00, 0x00, 0x00, 0x00, 0x00, 0x00, 0x00,
   0x00, 0x00, 0x00, 0x00, 0x00, 0x00, 0x00, 0x00, 0x00, 0x00, 0x00, 0x00,
   0x00, 0x00, 0x00, 0x00, 0x00, 0x00, 0x00, 0x00, 0x00, 0x00, 0x00, 0x00,
   0x00, 0x00, 0x00, 0x00, 0x00, 0x00, 0x00, 0x00, 0x00, 0x00, 0x00, 0x00,
   0x00, 0x00, 0x00, 0x00, 0x00, 0x00, 0x00, 0x00, 0x00, 0x00, 0x00, 0x00,
   0x00, 0x00, 0x00, 0x00, 0x00, 0x00, 0x00, 0x00, 0x00, 0x00, 0x00, 0x00,
   0x00, 0x00, 0x00, 0x00, 0x00, 0x00, 0x00, 0x00, 0x00, 0x00, 0x00, 0x00,
   0x00, 0x00, 0x00, 0x00, 0x00, 0x00, 0x00, 0x00, 0x00, 0x00, 0x00, 0x00,
   0x00, 0x00, 0x00, 0x00, 0x00, 0x00, 0x00, 0x00, 0x00, 0x00, 0x00, 0x00,
   0x00, 0x00, 0x00, 0x00, 0x00, 0x00, 0x00, 0x00, 0x00, 0x00, 0x00, 0x00,
   0x00, 0x00, 0x00, 0x00, 0x00, 0x00, 0x00, 0x00, 0x00, 0x00, 0x00, 0x00,
   0x00, 0x00, 0x00, 0x00, 0x00, 0x00, 0x00, 0x00, 0x00, 0x00, 0x00, 0x00,
   0x00, 0x00, 0x00, 0x00, 0x00, 0x00, 0x00, 0x00, 0x00, 0x00, 0x00, 0x00,
   0x00, 0x00, 0x00, 0x00, 0x00, 0x00, 0x00, 0x00, 0x00, 0x00, 0x00, 0x00,
   0x00, 0x00, 0x00, 0x00, 0x00, 0x00, 0x00, 0x00, 0x00, 0x00, 0x00, 0x00,
   0x00, 0x00, 0x00, 0x00, 0x00, 0x00, 0x00, 0x00, 0x00, 0x00, 0x00, 0x00,
   0x00, 0x00, 0x00, 0x00, 0x00, 0x00, 0x00, 0x00, 0x00, 0x00, 0x00, 0x00,
   0x00, 0x00, 0x00, 0x00, 0x00, 0x00, 0x00, 0x00, 0x00, 0x00, 0x00, 0x00,
   0x00, 0x00, 0x00, 0x00, 0x00, 0x00, 0x00, 0x00, 0x00, 0x00, 0x00, 0x00,
   0x00, 0x00, 0x00, 0x00, 0x00, 0x00, 0x00, 0x00, 0x00, 0x00, 0x00, 0x00,
   0x00, 0x00, 0x00, 0x00, 0x00, 0x00, 0x00, 0x00, 0x00, 0x00, 0x00, 0x00,
   0x00, 0x00, 0x00, 0x00, 0x00, 0x00, 0x00, 0x00, 0x00, 0x00, 0x00, 0x00,
   0x00, 0x00, 0x00, 0x00, 0x00, 0x00, 0x00, 0x00, 0x00, 0x00, 0x00, 0x00,
   0x00, 0x00, 0x00, 0x00, 0x00, 0x00, 0x00, 0x00 };
